<svg width="16" height="19" viewBox="0 0 16 19" fill="none" xmlns="http://www.w3.org/2000/svg">
<path d="M7.89908 18.1677C7.76498 18.1658 7.63234 18.1364 7.50943 18.0828C7.38655 18.0291 7.27578 17.9513 7.18326 17.8543L2.58072 13.0906C1.17948 11.6231 0.404681 9.66741 0.42154 7.63843C0.438497 5.60933 1.24589 3.66637 2.67154 2.22242C3.37382 1.50543 4.21501 0.938094 5.14322 0.556401C6.07135 0.174762 7.06754 -0.013808 8.07095 0.00171405C9.06775 0.0102095 10.0533 0.217863 10.9684 0.613042C11.8835 1.00822 12.7104 1.5828 13.4001 2.3025C14.8002 3.77139 15.5722 5.72837 15.5534 7.75757C15.5345 9.78687 14.7257 11.729 13.2985 13.1716L8.61588 17.864C8.52473 17.9621 8.41401 18.0403 8.29068 18.0925C8.16717 18.1447 8.03312 18.1708 7.89908 18.1677ZM7.90884 10.3113C9.25783 10.3113 10.3521 9.21786 10.3522 7.8689C10.3522 6.51986 9.25788 5.42652 7.90885 5.42652C6.56002 5.42677 5.46646 6.52002 5.46646 7.8689C5.46655 9.21771 6.56008 10.311 7.90884 10.3113Z" fill="#4C4F4D"/>
</svg>
