<svg width="21" height="24" viewBox="0 0 21 24" fill="none" xmlns="http://www.w3.org/2000/svg">
<path d="M18.5921 12.0586C17.9311 12.7725 17.226 13.4336 16.4768 14.077C15.4279 14.9848 14.3614 15.8663 13.2772 16.7124C12.1138 15.9985 11.2764 15.6371 11.1354 15.8222C11.012 15.9897 11.4968 16.6066 12.3694 17.4087C9.44308 19.5858 6.34932 21.5073 3.02639 23.085C2.50635 23.3318 1.95988 23.5081 1.42222 23.702C1.28119 23.7549 1.13135 23.7549 1.06965 23.7637C0.223495 23.8607 -0.0321152 23.6315 0.00314137 22.8559C0.108911 20.4408 0.858112 18.1756 1.63376 15.9191C1.84529 15.3022 2.06565 14.6852 2.29482 14.0682C3.46709 14.7821 4.30444 15.1523 4.44546 14.9672C4.5953 14.7645 3.89017 13.9536 2.70908 12.94C3.55524 10.7541 4.49835 8.60341 5.60893 6.54091C7.83009 8.18915 9.80445 9.27329 10.0248 8.97361C10.2452 8.67393 8.61455 7.07857 6.36694 5.4127L6.26999 5.34219C6.65781 4.68113 7.06326 4.02007 7.49515 3.37663C8.03281 2.56573 8.69388 1.82535 9.34612 1.10259C10.2187 0.141849 11.3469 -0.184274 12.6073 0.0977778C16.6442 0.996819 19.4471 3.31494 20.7692 7.29011C21.0337 8.10101 20.7957 8.89428 20.3814 9.62585C20.0994 10.1194 19.7909 10.5866 19.4471 11.0273C17.3141 9.4672 15.4631 8.46239 15.2516 8.74444C15.0489 9.02649 16.5208 10.4808 18.5921 12.0586Z" fill="#F3603F"/>
</svg>
