<svg width="19" height="19" viewBox="0 0 19 19" fill="none" xmlns="http://www.w3.org/2000/svg">
<path d="M8.0005 14.1802C8.78843 14.1802 9.56865 14.025 10.2966 13.7235C11.0246 13.4219 11.686 12.98 12.2431 12.4228C12.8003 11.8657 13.2423 11.2042 13.5438 10.4763C13.8453 9.74834 14.0005 8.96812 14.0005 8.18019C14.0005 7.39226 13.8453 6.61204 13.5438 5.88409C13.2423 5.15614 12.8003 4.4947 12.2431 3.93755C11.686 3.3804 11.0246 2.93844 10.2966 2.63691C9.56865 2.33539 8.78843 2.18019 8.0005 2.18019C6.4092 2.18019 4.88308 2.81233 3.75786 3.93755C2.63264 5.06277 2.0005 6.58889 2.0005 8.18019C2.0005 9.77149 2.63264 11.2976 3.75786 12.4228C4.88308 13.548 6.4092 14.1802 8.0005 14.1802ZM14.3205 13.0862L17.9005 16.6662C17.9959 16.7585 18.072 16.8689 18.1244 16.9909C18.1767 17.113 18.2042 17.2442 18.2052 17.377C18.2063 17.5098 18.1809 17.6414 18.1305 17.7643C18.0802 17.8872 18.0058 17.9988 17.9119 18.0926C17.8179 18.1864 17.7062 18.2606 17.5833 18.3108C17.4604 18.361 17.3287 18.3862 17.1959 18.3849C17.0631 18.3837 16.9319 18.356 16.8099 18.3035C16.688 18.251 16.5777 18.1748 16.4855 18.0792L12.9055 14.4992C11.298 15.747 9.2753 16.3354 7.24926 16.1444C5.22322 15.9534 3.34611 14.9975 2.00005 13.4713C0.654 11.945 -0.0598121 9.96314 0.00392902 7.92911C0.0676701 5.89509 0.904173 3.96181 2.34315 2.52284C3.78213 1.08386 5.7154 0.247358 7.74943 0.183617C9.78345 0.119875 11.7653 0.833687 13.2916 2.17974C14.8178 3.5258 15.7737 5.4029 15.9647 7.42894C16.1557 9.45498 15.5674 11.4777 14.3195 13.0852L14.3205 13.0862Z" fill="#181B19"/>
</svg>
