<svg width="17" height="17" viewBox="0 0 17 17" fill="none" xmlns="http://www.w3.org/2000/svg">
<path d="M15.2368 1.00488C15.3991 1.00488 15.5766 1.02841 15.73 1.08984C15.8445 1.13574 15.951 1.20198 16.0493 1.27734L16.145 1.35547L16.147 1.35742C16.2625 1.46851 16.3512 1.61483 16.4136 1.75879H16.4126C16.4893 1.90761 16.5142 2.06706 16.5142 2.23438C16.5141 2.39405 16.4766 2.55292 16.4136 2.69824C16.3495 2.84589 16.2475 2.97955 16.1226 3.09961L10.145 8.84277L11.2495 9.89453H11.2505L16.1226 14.5889L16.1235 14.5898C16.3506 14.8202 16.4784 15.1246 16.4663 15.4424L16.4595 15.5605C16.4318 15.8327 16.3082 16.0822 16.0981 16.2842C15.8704 16.5031 15.5543 16.6367 15.2251 16.6367C14.8983 16.6367 14.5824 16.5281 14.3413 16.3086L14.3403 16.3076L7.4624 9.69824C7.34772 9.58801 7.25984 9.45309 7.19678 9.30762C7.13385 9.16242 7.09529 9.00425 7.09521 8.84473C7.09521 8.68488 7.13339 8.52607 7.1958 8.37012L7.19678 8.36914C7.25977 8.22384 7.34791 8.08965 7.4624 7.97949L14.3403 1.36914C14.4534 1.26051 14.5919 1.16275 14.7446 1.10156H14.7456C14.9074 1.04177 15.0716 1.00495 15.2368 1.00488Z" fill="#181725" stroke="#181725" stroke-width="0.1"/>
<path d="M1.98047 16.6396C1.81823 16.6396 1.6407 16.6161 1.4873 16.5547C1.37274 16.5088 1.26627 16.4426 1.16797 16.3672L1.07227 16.2891L1.07031 16.2871C0.954786 16.176 0.866118 16.0297 0.803711 15.8857L0.804688 15.8857C0.728005 15.7369 0.703125 15.5775 0.703125 15.4102C0.70315 15.2505 0.740714 15.0916 0.803711 14.9463C0.867746 14.7986 0.969812 14.665 1.09473 14.5449L7.07227 8.80176L5.96777 7.75L5.9668 7.75L1.09473 3.05566L1.09375 3.05469C0.866705 2.82434 0.73893 2.51991 0.750978 2.20215L0.757814 2.08398C0.785491 1.81182 0.909048 1.56235 1.11914 1.36035C1.34688 1.14146 1.66297 1.00781 1.99219 1.00781C2.31903 1.00782 2.6349 1.11647 2.87598 1.33594L2.87695 1.33691L9.75488 7.94629C9.86957 8.05652 9.95745 8.19144 10.0205 8.33691C10.0834 8.48211 10.122 8.64028 10.1221 8.7998C10.1221 8.95965 10.0839 9.11846 10.0215 9.27441L10.0205 9.27539C9.95752 9.42069 9.86938 9.55488 9.75488 9.66504L2.87695 16.2754C2.76391 16.384 2.62538 16.4818 2.47266 16.543L2.47168 16.543C2.30992 16.6028 2.14567 16.6396 1.98047 16.6396Z" fill="#181725" stroke="#181725" stroke-width="0.1"/>
</svg>
