<svg width="23" height="21" viewBox="0 0 23 21" fill="none" xmlns="http://www.w3.org/2000/svg">
<path d="M8.93199 20.5199C8.28344 20.5199 7.66145 20.2623 7.20285 19.8037C6.74426 19.3451 6.48662 18.7231 6.48662 18.0746C6.48662 17.426 6.74426 16.804 7.20285 16.3454C7.66145 15.8869 8.28344 15.6292 8.93199 15.6292C9.58054 15.6292 10.2025 15.8869 10.6611 16.3454C11.1197 16.804 11.3774 17.426 11.3774 18.0746C11.3774 18.7231 11.1197 19.3451 10.6611 19.8037C10.2025 20.2623 9.58054 20.5199 8.93199 20.5199ZM17.4908 20.5199C16.8422 20.5199 16.2202 20.2623 15.7616 19.8037C15.303 19.3451 15.0454 18.7231 15.0454 18.0746C15.0454 17.426 15.303 16.804 15.7616 16.3454C16.2202 15.8869 16.8422 15.6292 17.4908 15.6292C18.1393 15.6292 18.7613 15.8869 19.2199 16.3454C19.6785 16.804 19.9361 17.426 19.9361 18.0746C19.9361 18.7231 19.6785 19.3451 19.2199 19.8037C18.7613 20.2623 18.1393 20.5199 17.4908 20.5199ZM1.54943 3.30825C1.24421 3.2984 0.954772 3.17023 0.74234 2.95084C0.529908 2.73144 0.411133 2.43803 0.411133 2.13264C0.411133 1.82725 0.529908 1.53384 0.74234 1.31444C0.954772 1.09505 1.24421 0.966876 1.54943 0.957031L2.95674 0.957031C4.0596 0.957031 5.01329 1.72243 5.25294 2.79839L6.78496 9.69676C7.0246 10.7727 7.9783 11.5381 9.08116 11.5381H18.2659L20.029 4.48325H8.60309C8.30073 4.46945 8.01533 4.33963 7.80625 4.12078C7.59716 3.90194 7.48048 3.61092 7.48048 3.30825C7.48048 3.00558 7.59716 2.71456 7.80625 2.49571C8.01533 2.27687 8.30073 2.14705 8.60309 2.13325H20.029C20.3865 2.13315 20.7392 2.21453 21.0605 2.37123C21.3817 2.52792 21.663 2.75579 21.883 3.03753C22.103 3.31926 22.2558 3.64743 22.3299 3.9971C22.404 4.34677 22.3974 4.70873 22.3106 5.05546L20.5475 12.1079C20.4204 12.6168 20.1268 13.0685 19.7133 13.3913C19.2999 13.7141 18.7904 13.8894 18.2659 13.8893H9.08116C8.01106 13.8895 6.97291 13.5246 6.13818 12.8551C5.30344 12.1855 4.72203 11.2513 4.48998 10.2066L2.95674 3.30825H1.54943Z" fill="#181725"/>
</svg>
