<svg width="29" height="19" viewBox="0 0 29 19" fill="none" xmlns="http://www.w3.org/2000/svg">
<path d="M18.27 14.2388C19.058 14.2388 19.8382 14.0836 20.5661 13.7821C21.2941 13.4805 21.9555 13.0386 22.5127 12.4814C23.0698 11.9243 23.5118 11.2628 23.8133 10.5349C24.1148 9.80693 24.27 9.02672 24.27 8.23878C24.27 7.45085 24.1148 6.67064 23.8133 5.94268C23.5118 5.21473 23.0698 4.5533 22.5127 3.99614C21.9555 3.43899 21.2941 2.99704 20.5661 2.69551C19.8382 2.39398 19.058 2.23878 18.27 2.23878C16.6787 2.23878 15.1526 2.87093 14.0274 3.99614C12.9022 5.12136 12.27 6.64749 12.27 8.23878C12.27 9.83008 12.9022 11.3562 14.0274 12.4814C15.1526 13.6066 16.6787 14.2388 18.27 14.2388ZM24.59 13.1448L28.17 16.7248C28.2655 16.8171 28.3416 16.9275 28.3939 17.0495C28.4462 17.1716 28.4737 17.3028 28.4748 17.4356C28.4758 17.5684 28.4504 17.7 28.4001 17.8229C28.3497 17.9458 28.2754 18.0574 28.1814 18.1512C28.0875 18.245 27.9757 18.3192 27.8528 18.3694C27.7299 18.4196 27.5982 18.4448 27.4654 18.4435C27.3326 18.4423 27.2014 18.4146 27.0795 18.3621C26.9575 18.3096 26.8472 18.2334 26.755 18.1378L23.175 14.5578C21.5675 15.8056 19.5448 16.394 17.5188 16.203C15.4927 16.012 13.6156 15.0561 12.2696 13.5298C10.9235 12.0036 10.2097 10.0217 10.2735 7.98771C10.3372 5.95369 11.1737 4.02041 12.6127 2.58143C14.0517 1.14245 15.9849 0.305951 18.019 0.24221C20.053 0.178469 22.0348 0.892281 23.5611 2.23834C25.0873 3.58439 26.0433 5.4615 26.2342 7.48754C26.4252 9.51358 25.8369 11.5362 24.589 13.1438L24.59 13.1448Z" fill="#181725"/>
<rect x="0.125977" y="0.238281" width="8.85499" height="2.39923" rx="1.19961" fill="#181725"/>
<rect x="0.125977" y="7.67578" width="6.46414" height="2.39923" rx="1.19961" fill="#181725"/>
<rect x="0.125977" y="15.1133" width="8.85499" height="2.39923" rx="1.19961" fill="#181725"/>
</svg>
