<svg width="21" height="21" viewBox="0 0 21 21" fill="none" xmlns="http://www.w3.org/2000/svg">
<path d="M3.70605 0.569336H17.7061C18.4884 0.569336 19.2388 0.880363 19.792 1.43359C20.3452 1.98683 20.6562 2.73714 20.6562 3.51953V5.51953C20.6562 6.38676 20.2823 7.16715 19.6855 7.70703L19.6689 7.72266V18.4844C19.6689 19.0015 19.4634 19.4976 19.0977 19.8633C18.732 20.2289 18.2359 20.4346 17.7188 20.4346H10.0791V20.4336L10.0693 20.4355C9.94957 20.4582 9.82794 20.4697 9.70605 20.4697H7.70605C7.58417 20.4697 7.46254 20.4582 7.34277 20.4355L7.33301 20.4844L7.34277 20.4346H3.7168C3.19972 20.4345 2.70353 20.2289 2.33789 19.8633C1.97233 19.4976 1.7666 19.0014 1.7666 18.4844V7.64355L1.71387 7.69531C1.41783 7.42469 1.17929 7.09659 1.01465 6.73047C0.843515 6.34979 0.755277 5.93691 0.755859 5.51953V3.51953C0.755859 2.73714 1.06689 1.98683 1.62012 1.43359C2.17335 0.880362 2.92367 0.569337 3.70605 0.569336ZM13.6729 7.71875C13.1326 8.20332 12.4318 8.47073 11.7061 8.46973H9.70605C8.95088 8.46973 8.2604 8.18576 7.73926 7.71875L7.70605 7.68848L7.67285 7.71875C7.1326 8.20332 6.43179 8.47073 5.70605 8.46973H3.66602V18.5342H5.75586V13.5195C5.75586 13.0024 5.96145 12.5063 6.32715 12.1406C6.69284 11.7749 7.18888 11.5693 7.70605 11.5693H9.70605C10.2232 11.5693 10.7193 11.7749 11.085 12.1406C11.4507 12.5063 11.6562 13.0024 11.6562 13.5195V18.5342H17.7695V8.46973H15.7061C14.9509 8.46973 14.2604 8.18576 13.7393 7.71875L13.7061 7.68848L13.6729 7.71875ZM7.65625 18.5342H9.70605V18.4854H9.75586V13.4697H7.65625V18.5342ZM14.7061 11.5693H15.7061C15.958 11.5693 16.1998 11.6695 16.3779 11.8477C16.5561 12.0258 16.6562 12.2676 16.6562 12.5195V15.5195C16.6562 15.7715 16.5561 16.0132 16.3779 16.1914C16.1998 16.3696 15.958 16.4697 15.7061 16.4697H14.7061C14.4541 16.4697 14.2123 16.3696 14.0342 16.1914C13.856 16.0132 13.7559 15.7715 13.7559 15.5195V12.5195C13.7559 12.2676 13.856 12.0258 14.0342 11.8477C14.2123 11.6695 14.4541 11.5693 14.7061 11.5693ZM3.70605 2.46973C3.42758 2.46973 3.16078 2.58043 2.96387 2.77734C2.76695 2.97426 2.65625 3.24105 2.65625 3.51953V5.51953C2.65625 5.79801 2.76695 6.06481 2.96387 6.26172C3.16078 6.45863 3.42758 6.56934 3.70605 6.56934H5.70605C5.98453 6.56934 6.25133 6.45863 6.44824 6.26172C6.64516 6.06481 6.75586 5.79801 6.75586 5.51953V2.46973H3.70605ZM8.65625 5.51953C8.65625 5.79801 8.76696 6.06481 8.96387 6.26172C9.16078 6.45863 9.42758 6.56934 9.70605 6.56934H11.7061C11.9845 6.56934 12.2513 6.45863 12.4482 6.26172C12.6452 6.06481 12.7559 5.79801 12.7559 5.51953V2.46973H8.65625V5.51953ZM14.6562 5.51953C14.6562 5.79801 14.767 6.06481 14.9639 6.26172C15.1608 6.45863 15.4276 6.56934 15.7061 6.56934H17.7061C17.9845 6.56934 18.2513 6.45863 18.4482 6.26172C18.6452 6.06481 18.7559 5.79801 18.7559 5.51953V3.51953C18.7559 3.24105 18.6452 2.97426 18.4482 2.77734C18.2513 2.58043 17.9845 2.46973 17.7061 2.46973H14.6562V5.51953Z" fill="#53B175" stroke="white" stroke-width="0.1"/>
</svg>
