<svg width="11" height="19" viewBox="0 0 11 19" fill="none" xmlns="http://www.w3.org/2000/svg">
<g clip-path="url(#clip0_5221_1537)">
<path d="M9.60755 15.8279C9.84223 16.085 9.9726 16.4234 9.95957 16.7752C9.95957 17.1271 9.82919 17.4519 9.58147 17.7091C9.34679 17.9527 9.02085 18.1016 8.68186 18.1016C8.34288 18.1016 8.01693 17.9798 7.76922 17.7361L0.389815 10.076C0.272475 9.95419 0.18121 9.80532 0.116021 9.64292C0.0508322 9.48051 0.0117188 9.30457 0.0117188 9.12863C0.0117188 8.95269 0.0508322 8.77675 0.116021 8.60081C0.18121 8.43841 0.272475 8.28953 0.389815 8.16773L7.76922 0.507578C7.88656 0.385773 8.02997 0.277502 8.18643 0.209833C8.35592 0.142164 8.52541 0.101562 8.6949 0.101562C8.86439 0.101562 9.04692 0.12863 9.20337 0.196299C9.35983 0.263969 9.50324 0.372239 9.63362 0.494044C9.75096 0.615848 9.84223 0.778254 9.90742 0.94066C9.98564 1.10307 10.0117 1.27901 10.0117 1.46848C10.0117 1.64442 9.9726 1.82036 9.90742 1.98277C9.84223 2.14517 9.73792 2.29404 9.60755 2.42938L3.15383 9.12863L4.37938 10.3873L9.60755 15.8279Z" fill="#181725"/>
</g>
<defs>
<clipPath id="clip0_5221_1537">
<rect width="10" height="18" fill="white" transform="translate(0.0117188 0.101562)"/>
</clipPath>
</defs>
</svg>
