<svg width="16" height="9" viewBox="0 0 16 9" fill="none" xmlns="http://www.w3.org/2000/svg">
<path d="M0.900391 1.46777C0.900398 1.31702 0.921903 1.15037 0.980469 1.00391C1.03868 0.858557 1.1308 0.72839 1.22949 0.614258L1.2334 0.610352C1.33844 0.501065 1.47436 0.418336 1.60645 0.360352L1.7168 0.313477C1.82893 0.274961 1.94554 0.261719 2.06348 0.261719C2.21599 0.26177 2.36628 0.29819 2.50293 0.357422C2.64437 0.418737 2.77092 0.515416 2.88281 0.631836L8.02051 5.97852L8.92773 5.02441L8.92773 5.02344L13.1592 0.631836L13.1611 0.629883C13.3783 0.415851 13.6665 0.294636 13.9688 0.305664L14.0801 0.311524C14.3389 0.337801 14.5758 0.455764 14.7666 0.654297C14.9733 0.869413 15.0995 1.16732 15.0996 1.47852C15.0996 1.7851 14.998 2.08398 14.79 2.3125L14.7881 2.31445L8.83008 8.51367C8.72515 8.62281 8.5978 8.70627 8.46094 8.76563C8.3243 8.82486 8.17398 8.86126 8.02148 8.86133C7.86859 8.86133 7.71836 8.82467 7.57324 8.7666L7.57031 8.76563C7.43351 8.70626 7.30604 8.62278 7.20117 8.51367L1.24414 2.31445C1.14229 2.20848 1.04947 2.07794 0.991211 1.93262L0.990234 1.92969C0.934682 1.77941 0.900391 1.62495 0.900391 1.46777Z" fill="#181725" stroke="#181725" stroke-width="0.2"/>
</svg>
