<svg width="23" height="20" viewBox="0 0 23 20" fill="none" xmlns="http://www.w3.org/2000/svg">
<path d="M3.69423 9.11907L11.5183 16.9432L19.3424 9.11907C20.0342 8.42732 20.4228 7.48911 20.4228 6.51083C20.4228 5.53255 20.0342 4.59434 19.3424 3.90259C18.9999 3.56007 18.5933 3.28837 18.1458 3.103C17.6982 2.91763 17.2186 2.82222 16.7342 2.82222C15.7559 2.82222 14.8177 3.21084 14.126 3.90259L11.5183 6.51021L8.91071 3.90382C8.2172 3.22135 7.28211 2.84057 6.30912 2.84442C5.33613 2.84826 4.40408 3.23643 3.71599 3.92436C3.0279 4.61229 2.63952 5.54425 2.63544 6.51723C2.63136 7.49021 3.01193 8.4254 3.69423 9.11907ZM10.6491 2.16295L11.5183 3.03215L12.3875 2.16295C12.9574 1.58803 13.6353 1.13133 14.3822 0.819089C15.129 0.506844 15.9302 0.345195 16.7398 0.343422C17.5493 0.341649 18.3512 0.499788 19.0994 0.808759C19.8477 1.11773 20.5275 1.57145 21.0999 2.14387C21.6723 2.71628 22.1261 3.39613 22.435 4.14437C22.744 4.89261 22.9021 5.6945 22.9004 6.50402C22.8986 7.31354 22.7369 8.11474 22.4247 8.86162C22.1125 9.6085 21.6558 10.2863 21.0808 10.8563L12.3888 19.5496C12.2746 19.6639 12.139 19.7545 11.9897 19.8164C11.8405 19.8783 11.6805 19.9101 11.5189 19.9101C11.3574 19.9101 11.1974 19.8783 11.0481 19.8164C10.8989 19.7545 10.7633 19.6639 10.6491 19.5496L1.95581 10.8575C1.37308 10.2894 0.908936 9.61128 0.590319 8.86243C0.271702 8.11359 0.10495 7.30893 0.0997356 6.49513C0.0945214 5.68134 0.250949 4.87461 0.559944 4.12174C0.86894 3.36887 1.32435 2.68485 1.89976 2.10936C2.47517 1.53387 3.15913 1.07836 3.91195 0.769259C4.66478 0.460157 5.47149 0.303615 6.28528 0.308714C7.09908 0.313813 7.90376 0.480452 8.65265 0.798963C9.40154 1.11747 10.0797 1.58152 10.6479 2.16417L10.6491 2.16295Z" fill="#7C7C7C"/>
</svg>
