<svg width="18" height="18" viewBox="0 0 18 18" fill="none" xmlns="http://www.w3.org/2000/svg">
<path d="M17.6816 9.48047C17.6816 9.8563 17.5375 10.2196 17.2681 10.4827C17.0049 10.752 16.6415 10.9024 16.2655 10.9024H10.6009V16.5648C10.6009 16.9407 10.4505 17.304 10.1811 17.5671C9.91791 17.8301 9.56074 17.9805 9.18477 17.9805C8.80881 17.9805 8.44537 17.8301 8.18219 17.5671C7.91275 17.304 7.76236 16.9407 7.76236 16.5648V10.9024H2.09779C1.72182 10.9024 1.35838 10.752 1.0952 10.4827C0.832028 10.2196 0.681641 9.8563 0.681641 9.48047C0.681641 9.10464 0.832028 8.7476 1.0952 8.47826C1.35838 8.21518 1.72182 8.06485 2.09779 8.06485H7.76236V2.40236C7.76236 2.02653 7.91275 1.66322 8.18219 1.40014C8.44537 1.1308 8.80881 0.980469 9.18477 0.980469C9.56074 0.980469 9.91791 1.1308 10.1811 1.40014C10.4505 1.66322 10.6009 2.02653 10.6009 2.40236V8.06485H16.2655C16.6415 8.06485 17.0049 8.21518 17.2681 8.47826C17.5375 8.7476 17.6816 9.10464 17.6816 9.48047Z" fill="#53B175"/>
</svg>
