<svg width="10" height="15" viewBox="0 0 10 15" fill="none" xmlns="http://www.w3.org/2000/svg">
<path d="M1.7041 14.4629C1.55335 14.4629 1.38669 14.4414 1.24023 14.3828C1.09488 14.3246 0.964718 14.2325 0.850586 14.1338L0.84668 14.1299C0.737393 14.0248 0.654664 13.8889 0.59668 13.7568L0.549805 13.6465C0.511289 13.5344 0.498047 13.4177 0.498047 13.2998C0.498098 13.1473 0.534518 12.997 0.59375 12.8604C0.655065 12.7189 0.751744 12.5924 0.868164 12.4805L6.21484 7.34277L5.26074 6.43555L5.25976 6.43555L0.868163 2.2041L0.86621 2.20215C0.652178 1.985 0.530963 1.69678 0.541991 1.39453L0.54785 1.2832C0.574127 1.02437 0.692091 0.787501 0.890624 0.59668C1.10574 0.389983 1.40365 0.263749 1.71484 0.263673C2.02143 0.263672 2.32031 0.365304 2.54883 0.573243L2.55078 0.575196L8.75 6.5332C8.85914 6.63813 8.9426 6.76548 9.00195 6.90234C9.06118 7.03898 9.09759 7.1893 9.09766 7.3418C9.09766 7.49469 9.061 7.64492 9.00293 7.79004L9.00195 7.79297C8.94259 7.92977 8.85911 8.05724 8.75 8.16211L2.55078 14.1191C2.44481 14.221 2.31427 14.3138 2.16895 14.3721L2.16602 14.373C2.01574 14.4286 1.86128 14.4629 1.7041 14.4629Z" fill="#181725" stroke="#181725" stroke-width="0.2"/>
</svg>
