<svg width="20" height="20" viewBox="0 0 20 20" fill="none" xmlns="http://www.w3.org/2000/svg">
<path d="M3.48242 8.93359H4.80078C5.11059 8.93359 5.40784 9.05637 5.62695 9.27539C5.84606 9.4945 5.96971 9.79169 5.96973 10.1016C5.96973 10.4115 5.84608 10.7086 5.62695 10.9277C5.40784 11.1468 5.11062 11.2705 4.80078 11.2705H3.33301V16.8438H16.8174V11.2705H15.3486C15.0388 11.2705 14.7416 11.1468 14.5225 10.9277C14.3034 10.7086 14.1807 10.4114 14.1807 10.1016C14.1807 9.7917 14.3034 9.4945 14.5225 9.27539C14.7416 9.05628 15.0388 8.93361 15.3486 8.93359H16.667C17.3265 8.93359 17.9594 9.19485 18.4258 9.66113C18.8921 10.1275 19.1543 10.7604 19.1543 11.4199V16.6943C19.1542 17.3537 18.8919 17.9859 18.4258 18.4521C17.9594 18.9185 17.3266 19.1807 16.667 19.1807H3.48242C2.82292 19.1806 2.18997 18.9185 1.72363 18.4521C1.25758 17.9859 0.996208 17.3536 0.996094 16.6943V11.4199C0.996138 10.7604 1.25729 10.1275 1.72363 9.66113C2.18997 9.19479 2.82292 8.93364 3.48242 8.93359ZM10.0752 1.02148C10.2286 1.02153 10.3808 1.05145 10.5225 1.11035C10.6639 1.16924 10.7923 1.25563 10.9004 1.36426L10.9014 1.36523L14.6309 5.09375C14.7392 5.20226 14.8251 5.33097 14.8838 5.47266C14.9425 5.61459 14.9727 5.7673 14.9727 5.9209C14.9726 6.07439 14.9426 6.22638 14.8838 6.36816C14.825 6.51001 14.7385 6.63852 14.6299 6.74707C14.5213 6.85559 14.3928 6.94225 14.251 7.00098C14.109 7.05971 13.9563 7.0899 13.8027 7.08984C13.6493 7.08975 13.4972 7.05973 13.3555 7.00098C13.2137 6.9422 13.0851 6.85558 12.9766 6.74707L11.499 5.26758L11.2432 5.01074V12.8125C11.2431 13.1223 11.1204 13.4196 10.9014 13.6387C10.6823 13.8577 10.385 13.9804 10.0752 13.9805C9.76541 13.9805 9.46813 13.8577 9.24902 13.6387C9.02993 13.4196 8.90628 13.1223 8.90625 12.8125V5.01172L8.65039 5.26758L7.17188 6.74707C6.95259 6.966 6.65556 7.08885 6.3457 7.08887C6.03552 7.08876 5.73783 6.96549 5.51855 6.74609C5.29928 6.52666 5.17567 6.22916 5.17578 5.91895C5.17593 5.60878 5.29916 5.31104 5.51855 5.0918L9.24902 1.36523V1.36426C9.35722 1.25546 9.48625 1.16927 9.62793 1.11035C9.76959 1.05147 9.92178 1.02148 10.0752 1.02148Z" fill="#181725" stroke="white" stroke-width="0.3"/>
</svg>
