<svg width="19" height="19" viewBox="0 0 19 19" fill="none" xmlns="http://www.w3.org/2000/svg">
<circle cx="6.60889" cy="4.45703" r="3.3" stroke="#181725" stroke-width="1.9"/>
<rect x="0.839258" y="3.41641" width="3.30802" height="2.08304" rx="1.04152" fill="#181725" stroke="#181725" stroke-width="0.3"/>
<circle cx="12.2656" cy="13.8047" r="3.3" transform="rotate(-180 12.2656 13.8047)" stroke="#181725" stroke-width="1.9"/>
<path d="M16.5757 3.41602C17.1509 3.41602 17.6177 3.88279 17.6177 4.45801C17.6176 5.03318 17.1509 5.49902 16.5757 5.49902H10.7866C10.4758 5.49902 10.2009 5.31662 10.0132 5.08301C9.82511 4.84889 9.70396 4.53985 9.71826 4.24609C9.73381 3.93015 9.87496 3.71065 10.1001 3.5791C10.3136 3.4545 10.589 3.41604 10.8667 3.41602H16.5757Z" fill="#181725" stroke="#181725" stroke-width="0.3"/>
<rect x="9.09336" y="14.8453" width="7.84" height="2.08304" rx="1.04152" transform="rotate(-180 9.09336 14.8453)" fill="#181725" stroke="#181725" stroke-width="0.3"/>
<path d="M17.1816 14.8457C16.4393 14.8454 16.1375 13.8894 16.7451 13.4629C17.2486 13.1096 17.9421 13.47 17.9424 14.085C17.9424 14.5047 17.6014 14.8457 17.1816 14.8457Z" fill="#181725" stroke="#181725" stroke-width="0.3"/>
</svg>
